# xmcd
# 
# Track frame offsets:
#     150
#     15400
#     41088
#     64597
#     83876
#     106065
#     125730
#     157421
#     176041
# 
# Disc length: 2758
# 
# Revision: 1
# Processed by: cddbd v1.5.2PL0 Copyright (c) Steve Scherf et al.
# Submitted via: fre:ac v1.0.17
# 
DISCID=740ac409
DTITLE=中島みゆき - 臨月
DYEAR=0
DGENRE=JPop
TTITLE0=あした天気になれ
TTITLE1=あなたが海を見ているうちに
TTITLE2=あわせ鏡
TTITLE3=ひとり上手
TTITLE4=雪
TTITLE5=バス通り
TTITLE6=友情
TTITLE7=成人世代
TTITLE8=夜曲
EXTD=
EXTT0=
EXTT1=
EXTT2=
EXTT3=
EXTT4=
EXTT5=
EXTT6=
EXTT7=
EXTT8=
PLAYORDER=
